<svg xmlns="http://www.w3.org/2000/svg" viewBox="0 0 64 64">
  <defs>
    <linearGradient id="toothGradient" x1="0%" y1="0%" x2="100%" y2="100%">
      <stop offset="0%" style="stop-color:#0d9488;stop-opacity:1" />
      <stop offset="100%" style="stop-color:#0f766e;stop-opacity:1" />
    </linearGradient>
  </defs>
  <!-- 배경 원 -->
  <circle cx="32" cy="32" r="30" fill="url(#toothGradient)"/>
  <!-- 치아 아이콘 -->
  <path d="M32 12c-4.5 0-8.5 1.5-11 4-2.5 2.5-4 6-4 10 0 3 0.5 6 1.5 9 1 3 2 6 3 9 1 3 2 6 3.5 8 1 1.5 2.5 2 4 2 1.5 0 2-0.5 3-2 1-1.5 1.5-3 1.5-3s0.5 1.5 1.5 3c1 1.5 1.5 2 3 2 1.5 0 3-0.5 4-2 1.5-2 2.5-5 3.5-8 1-3 2-6 3-9 1-3 1.5-6 1.5-9 0-4-1.5-7.5-4-10-2.5-2.5-6.5-4-11-4z" fill="white"/>
</svg>
